<?xml version="1.0" encoding="utf-8"?><!--Generator: Adobe Illustrator 27.7.0, SVG Export Plug-In . SVG Version: 6.00 Build 0)--><svg version="1.1" id="Layer_1" xmlns="http://www.w3.org/2000/svg" xmlns:xlink="http://www.w3.org/1999/xlink" x="0px" y="0px" viewBox="0 0 449 405.5" style="enable-background:new 0 0 449 405.5;" xml:space="preserve"><style type="text/css">.st0{clip-path:url(#SVGID_00000177458595747232732180000001511486991413889463_);}
	.st1{fill-rule:evenodd;clip-rule:evenodd;fill:#1A285F;}
	.st2{fill:#1A285F;}</style><g><g><defs><rect id="SVGID_1_" x="114.2" y="39.6" width="217.9" height="217"/></defs><clipPath id="SVGID_00000059311427731070943430000000231455051079265461_"><use xlink:href="#SVGID_1_" style="overflow:visible;"/></clipPath><g style="clip-path:url(#SVGID_00000059311427731070943430000000231455051079265461_);"><path class="st1" d="M332,148.1c0-59.9-48.6-108.5-108.5-108.5C163.6,39.6,115,88.2,115,148.1c0,59.9,48.6,108.5,108.5,108.5
				C283.4,256.6,332,208,332,148.1z M203.7,87.8c-0.9,1.7-0.9,3.9-0.9,8.2v24.8c0,1.1,0,1.6,0.1,2.1c0.1,0.4,0.3,0.9,0.6,1.2
				c0.3,0.4,0.7,0.8,1.6,1.5l6.3,5.1c1,0.8,1.5,1.2,1.7,1.7c0.2,0.4,0.2,0.9,0,1.4c-0.2,0.5-0.7,0.9-1.7,1.7l-6.3,5.1
				c-0.8,0.7-1.3,1-1.6,1.5c-0.3,0.4-0.5,0.8-0.6,1.2c-0.1,0.5-0.1,1.1-0.1,2.1v54.4c0,4.4,0,6.6,0.9,8.2c0.8,1.5,1.9,2.7,3.4,3.4
				c1.7,0.9,3.9,0.9,8.2,0.9h16.2c4.4,0,6.6,0,8.2-0.9c1.5-0.7,2.7-1.9,3.4-3.4c0.9-1.7,0.9-3.9,0.9-8.2v-24.8c0-1.1,0-1.6-0.1-2.1
				c-0.1-0.4-0.3-0.9-0.6-1.2c-0.3-0.4-0.7-0.8-1.6-1.5l-6.3-5.1c-1-0.8-1.5-1.2-1.7-1.7c-0.2-0.4-0.2-0.9,0-1.4
				c0.2-0.5,0.7-0.9,1.7-1.7l6.3-5.1c0.8-0.7,1.3-1,1.6-1.5c0.3-0.4,0.5-0.8,0.6-1.2c0.1-0.5,0.1-1.1,0.1-2.1V96.1
				c0-4.4,0-6.6-0.9-8.2c-0.7-1.5-1.9-2.7-3.4-3.4c-1.7-0.9-3.9-0.9-8.2-0.9h-16.2c-4.4,0-6.6,0-8.2,0.9
				C205.7,85.2,204.5,86.4,203.7,87.8z"/></g></g><g><path class="st2" d="M34.7,356.3c0.5,0,0.9-0.4,0.9-0.9v-61.8c0-0.5-0.4-0.9-0.9-0.9h-9.1c-0.3,0-0.6,0.2-0.8,0.5
			c-2.1,3.2-6,4.8-11.3,4.9c-0.5,0-0.9,0.4-0.9,1v9.2c0,0.5,0.4,0.9,0.9,0.9h7.4c0.5,0,0.9,0.4,0.9,0.9v45.2c0,0.5,0.4,0.9,0.9,0.9
			H34.7z"/><path class="st2" d="M71.1,305.4c4.9,0,8.9,2.6,8.9,9.2c0,6.4-4,9.2-8.9,9.2H60.4v-18.4H71.1z M71.1,335.7
			c14.5,0,22.8-8.8,22.8-21.5c0-12-8.4-20.8-22.8-20.8H47.6c-0.5,0-0.9,0.4-0.9,0.9v61c0,0.5,0.4,0.9,0.9,0.9h11.9
			c0.5,0,0.9-0.4,0.9-0.9v-18.7c0-0.5,0.4-0.9,0.9-0.9H71.1z"/><path class="st2" d="M115.3,347.4c-4,0-6.6-1.8-6.6-5.1c0-2.9,1.7-4.8,5.9-4.8h11.3v1C125.9,344,121.1,347.4,115.3,347.4z
			 M127,355.3c0,0.5,0.4,0.9,0.9,0.9h10.3c0.5,0,0.9-0.4,0.9-0.9V328c0-13.2-7.4-20.8-20.8-20.8c-9.9,0-17.6,5.3-20.7,13.8
			c-0.2,0.5,0.1,1.1,0.7,1.2l10.4,2.6c0.5,0.1,1-0.1,1.1-0.6c1.6-3.9,4.2-6.2,8.5-6.2c4.4,0,7.5,2.9,7.5,8.1v0.7c0,1.5-0.5,2-2.2,2
			h-12c-10,0-16.1,5.3-16.1,13.7c0,9,6.9,14.8,16.6,14.8c4.8,0,9.5-1.6,12.8-5.1c0.6-0.7,2-0.3,2,0.7V355.3z"/><path class="st2" d="M164.9,347.8c-4.7,0-8.1-1.9-9.8-5.5c-0.2-0.4-0.7-0.7-1.1-0.6l-9.7,2.5c-0.5,0.1-0.8,0.6-0.7,1.1
			c2.5,8.2,10.7,12.2,20.9,12.2c13,0,20.4-6.7,20.4-15.8c0-17.6-27.8-11.6-27.8-20.3c0-2.9,2.4-4.7,6.7-4.7c4.3,0,7.2,2.4,8.6,6
			c0.2,0.4,0.6,0.7,1.1,0.6l9.9-1.9c0.5-0.1,0.9-0.6,0.7-1.1c-2.3-7.7-8.7-13-20.3-13c-12.7,0-19.5,6.8-19.5,15.3
			c0,18.2,27.9,12.8,27.9,20.3C172.3,345.8,169.8,347.8,164.9,347.8z"/><path class="st2" d="M208.1,347.8c-4.7,0-8.1-1.9-9.8-5.5c-0.2-0.4-0.7-0.7-1.1-0.6l-9.7,2.5c-0.5,0.1-0.8,0.6-0.7,1.1
			c2.5,8.2,10.7,12.2,20.9,12.2c13,0,20.4-6.7,20.4-15.8c0-17.6-27.8-11.6-27.8-20.3c0-2.9,2.4-4.7,6.7-4.7c4.3,0,7.2,2.4,8.6,6
			c0.2,0.4,0.6,0.7,1.1,0.6l9.9-1.9c0.5-0.1,0.9-0.6,0.7-1.1c-2.3-7.7-8.7-13-20.3-13c-12.7,0-19.5,6.8-19.5,15.3
			c0,18.2,27.9,12.8,27.9,20.3C215.6,345.8,213.1,347.8,208.1,347.8z"/><path class="st2" d="M240.3,355.5c0.1,0.4,0.5,0.7,0.9,0.7h15c0.4,0,0.8-0.3,0.9-0.7l7.6-32.5l7.6,32.5c0.1,0.4,0.5,0.7,0.9,0.7
			h15.5c0.4,0,0.8-0.3,0.9-0.7l11.3-46c0.1-0.6-0.3-1.2-0.9-1.2h-10.7c-0.4,0-0.8,0.3-0.9,0.8l-7.6,36.5l-9.4-36.5
			c-0.1-0.4-0.5-0.7-0.9-0.7h-11.9c-0.4,0-0.8,0.3-0.9,0.7l-8.7,36.5l-7.5-36.5c-0.1-0.4-0.5-0.8-0.9-0.8H230
			c-0.6,0-1.1,0.6-0.9,1.2L240.3,355.5z"/><path class="st2" d="M326.4,357.4c14.5,0,24.4-11.2,24.4-25.1c0-13.9-9.9-25.2-24.4-25.2c-14.4,0-24.4,11.2-24.4,25.2
			C302,346.2,312.1,357.4,326.4,357.4z M326.4,345.9c-6,0-10.6-5-10.6-13.5c0-8.5,4.6-13.6,10.6-13.6c6,0,10.7,5.1,10.7,13.6
			C337.1,340.9,332.4,345.9,326.4,345.9z"/><path class="st2" d="M369.8,330.9c0-8.2,4.1-10.2,10.5-10.2c1.2,0,2.6,0.1,3.8,0.4c0.5,0.1,1.1-0.2,1.2-0.8l2-11.4
			c0.1-0.4-0.1-0.8-0.5-1c-1.2-0.5-2.6-0.8-4.3-0.8c-6.5,0-11.5,3.8-13.9,11.4v-9.3c0-0.5-0.4-0.9-0.9-0.9h-10.4
			c-0.5,0-0.9,0.4-0.9,0.9v46c0,0.5,0.4,0.9,0.9,0.9h11.6c0.5,0,0.9-0.4,0.9-0.9V330.9z"/><path class="st2" d="M412.2,346.2c-6.9,0-10.6-5.7-10.6-13.8c0-8.1,3.7-13.9,10.6-13.9c6.9,0,10.6,5.8,10.6,13.9
			C422.8,340.5,419.2,346.2,412.2,346.2z M423.6,355.3c0,0.5,0.4,0.9,0.9,0.9h10.8c0.5,0,0.9-0.4,0.9-0.9v-60.9
			c0-0.5-0.4-0.9-0.9-0.9h-11.2c-0.5,0-0.9,0.4-0.9,0.9v20.6c-3-5.6-8-7.8-14.4-7.8c-12.4,0-20.9,10.8-20.9,25.2
			c0,14.3,8.5,25.1,20.9,25.1c6.7,0,11.9-2.7,14.7-9.7V355.3z"/></g></g></svg>