<svg width="116" height="116" viewBox="0 0 116 116" fill="none" xmlns="http://www.w3.org/2000/svg"><path d="M19.9806 75.0789C15.0602 68.3063 12.1108 60.3077 11.4583 51.9667C10.8058 43.6256 12.4756 35.2668 16.2832 27.8138C20.0907 20.3608 25.8879 14.1036 33.0341 9.73358C40.1804 5.36355 48.3976 3.05078 56.7779 3.05078C65.1582 3.05078 73.3754 5.36355 80.5217 9.73358C87.6679 14.1036 93.4651 20.3608 97.2726 27.8138C101.08 35.2668 102.75 43.6256 102.097 51.9667C101.445 60.3077 98.4956 68.3063 93.5752 75.0789L71.7556 39.5875L69.6342 43.1483L71.7556 53.0626L56.7429 27.4623L47.4183 43.125L49.5863 53.1324L41.7303 39.6806L19.9806 75.0789Z" fill="#43A5A1"/><path d="M11.8196 111.431L3.6373 99.1732V111.43H0V93.6571H4.20488L11.9333 105.256V93.6571H15.5706V111.431H11.8196ZM17.737 105.392C17.737 101.784 20.7138 99.0365 24.396 99.0365C28.0551 99.0365 30.9882 101.716 30.9882 105.325C30.9882 108.978 28.0103 111.703 24.3511 111.703C20.6679 111.703 17.737 109.046 17.737 105.394V105.392ZM21.3733 105.348C21.3733 107.185 22.714 108.457 24.373 108.457C26.032 108.457 27.3509 107.187 27.3509 105.348C27.3509 103.531 26.0101 102.259 24.35 102.259C22.6921 102.259 21.3733 103.531 21.3733 105.348ZM39.6812 99.3088V102.782C39.2033 102.691 38.7035 102.691 38.5449 102.691C36.84 102.691 35.6578 103.871 35.6578 106.12V111.43H32.1802V99.3099H35.5452V101.079H35.5889C36.2484 99.6948 37.4765 99.1732 38.7264 99.1732C38.9998 99.1732 39.4307 99.241 39.6812 99.3088ZM49.9216 111.43V109.887H49.8768C48.7394 111.544 46.9219 111.658 46.1028 111.658C42.5803 111.658 40.3297 108.616 40.3297 105.348C40.3297 102.282 42.6711 99.0824 46.1487 99.0824C46.8541 99.0824 48.5349 99.218 49.7849 100.693H49.8308V92.9528H53.3544V111.431H49.9205L49.9216 111.43ZM49.9216 105.348C49.9216 103.531 48.5808 102.282 46.9208 102.282C45.2629 102.282 43.9221 103.531 43.9221 105.348C43.9221 107.185 45.2629 108.457 46.9219 108.457C48.5808 108.457 49.9227 107.187 49.9227 105.348H49.9216ZM113.543 101.205C113.569 101.206 113.595 101.206 113.621 101.206C114.926 101.206 116 100.134 116 98.8309C116 97.5284 114.926 96.4556 113.621 96.4556C113.595 96.4556 113.569 96.4556 113.543 96.4567C112.238 96.4567 111.174 97.5207 111.174 98.8309C111.174 100.142 112.238 101.205 113.543 101.205ZM113.543 96.8996C114.607 96.8996 115.449 97.7679 115.449 98.8309C115.449 99.8938 114.607 100.753 113.543 100.753C112.486 100.753 111.653 99.8938 111.653 98.8309C111.653 97.7679 112.486 96.9007 113.543 96.9007V96.8996ZM113.179 99.2114H113.578L114.074 100.187H114.687L114.118 99.0879C114.412 98.9555 114.599 98.657 114.588 98.3355C114.588 97.9002 114.322 97.4672 113.639 97.4672H112.628V100.187H113.179V99.2114ZM114.03 98.3442C114.03 98.5039 113.932 98.7062 113.595 98.7062H113.179V97.9801H113.595C113.959 97.9801 114.03 98.1846 114.03 98.3442ZM70.5097 98.7981C70.5097 94.8327 67.5657 92.8008 63.8103 92.8008H56.8463V111.51H60.7231V104.916H63.6659C67.5897 104.916 70.5097 102.933 70.5097 98.7981ZM66.6077 98.8943C66.6077 100.639 65.0296 101.308 63.4975 101.308H60.7231V96.4578H63.4745C65.0778 96.4578 66.6077 97.0789 66.6077 98.8943ZM76.1067 111.75C77.4945 111.75 78.9533 111.272 79.9113 109.909L79.9583 109.933V111.51H83.4043V103.602C83.4043 100.16 81.0836 98.4645 77.9013 98.4645C75.222 98.4645 72.5897 99.755 72.1599 102.479L75.4374 103.219C75.7239 102.143 76.5857 101.475 77.734 101.475C79.0747 101.475 79.744 102.24 79.744 103.052C79.744 103.577 79.4334 103.936 78.739 103.936H77.4944C75.0065 103.936 71.8723 104.795 71.8723 107.854V107.949C71.8723 110.316 73.8812 111.75 76.1067 111.75ZM77.1828 109.025C76.3943 109.025 75.6288 108.644 75.6288 107.735C75.6288 106.731 76.73 106.277 77.4944 106.277H79.7199V106.565C79.7199 107.854 78.8341 109.025 77.1828 109.025ZM91.2989 111.797C94.793 111.797 96.4913 109.742 96.4913 107.569C96.4913 104.728 94.3227 103.829 91.9518 103.511L91.23 103.424C90.1966 103.276 89.7198 103.028 89.7198 102.359C89.7198 101.785 90.271 101.308 91.1797 101.308C92.2558 101.308 92.8551 101.953 93.0465 102.813L96.2759 102.001C96.0134 100.566 94.5535 98.4416 91.2289 98.4416C88.5245 98.4416 86.1798 100.208 86.1798 102.526C86.1798 105.225 88.098 106.112 90.318 106.49L90.797 106.564C92.1366 106.755 92.8311 106.995 92.8311 107.807C92.8311 108.285 92.4002 108.906 91.2989 108.906C90.0555 108.906 89.337 108.094 89.1708 107.162L85.9162 108.021C86.1317 109.383 87.5435 111.797 91.2989 111.797ZM103.813 111.797C100.056 111.797 98.6446 109.384 98.4292 108.021L101.683 107.162C101.851 108.094 102.568 108.905 103.813 108.905C104.913 108.905 105.343 108.285 105.343 107.806C105.343 107.045 104.734 106.788 103.553 106.602L102.83 106.49C100.61 106.112 98.6927 105.225 98.6927 102.526C98.6927 100.209 101.036 98.4416 103.741 98.4416C107.066 98.4416 108.525 100.566 108.789 102.001L105.559 102.813C105.368 101.953 104.77 101.308 103.694 101.308C102.784 101.308 102.234 101.785 102.234 102.359C102.234 103.028 102.71 103.276 103.742 103.424L104.219 103.481C106.684 103.77 109.004 104.629 109.004 107.568C109.004 109.742 107.305 111.797 103.813 111.797Z" fill="#151922"/></svg>